<svg width="18" height="24" viewBox="0 0 18 24" fill="none" xmlns="http://www.w3.org/2000/svg">
<path fill-rule="evenodd" clip-rule="evenodd" d="M12 22H6C4.67392 22 3.40204 21.4732 2.46436 20.5355C1.52667 19.5978 1 18.3261 1 17V12C1.0005 11.0276 1.28454 10.0764 1.81738 9.26294C2.35022 8.44947 3.10874 7.80902 4 7.42004V6C4 4.4087 4.37478 3.62522 5.5 2.5C6.62522 1.37478 7.4087 1 9 1C10.5913 1 11.3748 1.37478 12.5 2.5C13.6252 3.62522 14 4.4087 14 6V7.42004C14.8913 7.80902 15.6498 8.44947 16.1826 9.26294C16.7155 10.0764 16.9995 11.0276 17 12V17C17 18.3261 16.4733 19.5978 15.5356 20.5355C14.598 21.4732 13.3261 22 12 22ZM12 6C12 4.93913 12 5 11 4C10.5 3.5 10.0609 3 9 3C7.93913 3 7.5 3.5 7 4C5.97723 5.02277 6 4.93913 6 6V7H12V6ZM15 12C15 11.2044 14.6839 10.4413 14.1213 9.87866C13.5587 9.31605 12.7956 9 12 9H6C5.20435 9 4.44127 9.31605 3.87866 9.87866C3.31605 10.4413 3 11.2044 3 12V17C3 17.7956 3.31605 18.5587 3.87866 19.1213C4.44127 19.6839 5.20435 20 6 20H12C12.7956 20 13.5587 19.6839 14.1213 19.1213C14.6839 18.5587 15 17.7956 15 17V12ZM10 15.72V17C10 17.2652 9.89457 17.5196 9.70703 17.7072C9.5195 17.8947 9.26522 18 9 18C8.73478 18 8.4805 17.8947 8.29297 17.7072C8.10543 17.5196 8 17.2652 8 17V15.72C7.69772 15.5455 7.44643 15.2949 7.271 14.9932C7.09556 14.6914 7.00211 14.349 7 14C7 13.4696 7.21062 12.9609 7.58569 12.5858C7.96077 12.2107 8.46957 12 9 12C9.53043 12 10.0392 12.2107 10.4143 12.5858C10.7894 12.9609 11 13.4696 11 14C10.9979 14.349 10.9044 14.6914 10.729 14.9932C10.5536 15.2949 10.3023 15.5455 10 15.72Z" fill="white"/>
</svg>
